HIERARCHY
ROOT Hips
{
	OFFSET 0.000000 0.000000 0.000000
	CHANNELS 6 Xposition Yposition Zposition Xrotation Yrotation Zrotation
	JOINT LeftUpLeg_virtual
	{
		OFFSET 0.000000 0.000000 0.000000
		CHANNELS 3 Xrotation Yrotation Zrotation
		JOINT LeftUpLeg
		{
			OFFSET 15.427100 -6.655098 0.678600
			CHANNELS 3 Xrotation Yrotation Zrotation
			JOINT LeftLeg
			{
				OFFSET 4.081073 -39.591068 13.024000
				CHANNELS 3 Xrotation Yrotation Zrotation
				JOINT LeftFoot
				{
					OFFSET -4.081074 -37.707932 -15.979700
					CHANNELS 3 Xrotation Yrotation Zrotation
					JOINT LeftToeBase
					{
						OFFSET 5.346399 -15.068900 20.645000
						CHANNELS 3 Xrotation Yrotation Zrotation
						JOINT LeftToe_End
						{
							OFFSET 2.754700 0.931300 11.300900
							CHANNELS 3 Xrotation Yrotation Zrotation
							End Site
							{
								OFFSET 0 0 0
							}
						}
					}
				}
			}
		}
	}
	JOINT RightUpLeg_virtual
	{
		OFFSET 0.000000 0.000000 0.000000
		CHANNELS 3 Xrotation Yrotation Zrotation
		JOINT RightUpLeg
		{
			OFFSET -15.569500 -6.655098 0.678600
			CHANNELS 3 Xrotation Yrotation Zrotation
			JOINT RightLeg
			{
				OFFSET -4.081825 -39.591045 13.023800
				CHANNELS 3 Xrotation Yrotation Zrotation
				JOINT RightFoot
				{
					OFFSET 4.081824 -37.707954 -15.979600
					CHANNELS 3 Xrotation Yrotation Zrotation
					JOINT RightToeBase
					{
						OFFSET -5.346400 -15.068900 20.645000
						CHANNELS 3 Xrotation Yrotation Zrotation
						JOINT RightToe_End
						{
							OFFSET -2.754700 0.931300 11.300900
							CHANNELS 3 Xrotation Yrotation Zrotation
							End Site
							{
								OFFSET 0 0 0
							}
						}
					}
				}
			}
		}
	}
	JOINT Spine_virtual
	{
		OFFSET 0.000000 0.000000 0.000000
		CHANNELS 3 Xrotation Yrotation Zrotation
		JOINT Spine
		{
			OFFSET -0.279200 12.230698 -2.892100
			CHANNELS 3 Xrotation Yrotation Zrotation
			JOINT Spine1
			{
				OFFSET -0.232667 10.192268 -1.242267
				CHANNELS 3 Xrotation Yrotation Zrotation
				JOINT Spine1_split
				{
					OFFSET -0.232667 10.192268 -1.242267
					CHANNELS 3 Xrotation Yrotation Zrotation
					JOINT Spine2
					{
						OFFSET -0.232667 10.192268 -1.242267
						CHANNELS 3 Xrotation Yrotation Zrotation
						JOINT Neck_virtual
						{
							OFFSET 0.000000 0.000000 0.000000
							CHANNELS 3 Xrotation Yrotation Zrotation
							JOINT Neck
							{
								OFFSET -0.418800 17.814194 8.416900
								CHANNELS 3 Xrotation Yrotation Zrotation
								JOINT Head
								{
									OFFSET 0.000000 7.031097 3.806800
									CHANNELS 3 Xrotation Yrotation Zrotation
									JOINT HeadTop_End
									{
										OFFSET 0.000000 24.646606 12.978600
										CHANNELS 3 Xrotation Yrotation Zrotation
										End Site
										{
											OFFSET 0 0 0
										}
									}
								}
							}
						}
						JOINT LeftShoulder_virtual
						{
							OFFSET 0.000000 0.000000 0.000000
							CHANNELS 3 Xrotation Yrotation Zrotation
							JOINT LeftShoulder
							{
								OFFSET 8.476499 7.247704 -3.868750
								CHANNELS 3 Xrotation Yrotation Zrotation
								JOINT LeftShoulder_split
								{
									OFFSET 8.476499 7.247704 -3.868750
									CHANNELS 3 Xrotation Yrotation Zrotation
									JOINT LeftArm
									{
										OFFSET 9.308998 -2.777710 0.208600
										CHANNELS 3 Xrotation Yrotation Zrotation
										JOINT LeftForeArm
										{
											OFFSET 29.972298 0.000000 0.000000
											CHANNELS 3 Xrotation Yrotation Zrotation
											JOINT LeftHand
											{
												OFFSET 26.026505 0.000000 0.000000
												CHANNELS 3 Xrotation Yrotation Zrotation
												End Site
												{
													OFFSET 0 0 0
												}
											}
										}
									}
								}
							}
						}
						JOINT RightShoulder_virtual
						{
							OFFSET 0.000000 0.000000 0.000000
							CHANNELS 3 Xrotation Yrotation Zrotation
							JOINT RightShoulder
							{
								OFFSET -7.570500 7.247704 -3.868750
								CHANNELS 3 Xrotation Yrotation Zrotation
								JOINT RightShoulder_split
								{
									OFFSET -7.570500 7.247704 -3.868750
									CHANNELS 3 Xrotation Yrotation Zrotation
									JOINT RightArm
									{
										OFFSET -9.308998 -2.777710 0.208500
										CHANNELS 3 Xrotation Yrotation Zrotation
										JOINT RightForeArm
										{
											OFFSET -29.972300 0.000000 0.000000
											CHANNELS 3 Xrotation Yrotation Zrotation
											JOINT RightHand
											{
												OFFSET -26.026505 0.000000 0.000000
												CHANNELS 3 Xrotation Yrotation Zrotation
												End Site
												{
													OFFSET 0 0 0
												}
											}
										}
									}
								}
							}
						}
					}
				}
			}
		}
	}
}
MOTION
Frames: 11
Frame Time: 0.03333333
-6.429139 87.249275 -0.215473 0.000000 0.000000 0.000000 3.229784 29.388726 0.797420 -30.566869 -19.121512 2.065848 30.622153 13.578357 -8.355410 2.271656 -0.385380 -6.585563 2.473907 -2.338958 -0.151917 0.000000 0.000000 0.000000 4.160359 27.856361 0.537543 4.125673 -23.207904 -10.399810 25.306730 -6.176024 10.036207 -28.108257 -12.099023 -0.954735 -0.509307 0.390430 0.269867 0.000000 0.000000 0.000000 4.312491 28.850518 -0.242028 3.772117 4.739780 -0.868927 0.442249 3.217298 0.499000 0.435698 0.693767 0.090525 0.000000 0.000000 0.000000 1.571778 2.823566 0.866967 -3.141227 11.954473 -6.920976 -6.269423 9.408154 9.895175 0.000000 0.000000 0.000000 0.375996 3.079595 0.905358 -0.034035 -2.063301 -3.187092 2.907522 -1.105596 -0.122116 -74.296557 -0.220360 -25.546221 1.313848 -65.503358 3.300213 0.000000 0.000000 0.000000 1.092381 3.037360 0.907727 4.250776 12.188738 8.152612 -5.310693 -0.385625 0.336495 14.645964 -6.147717 67.278859 16.973264 40.795695 -6.979931 0.000000 0.000000 0.000000 
-6.402213 87.373383 -0.455666 0.000000 0.000000 0.000000 3.778866 26.536723 0.558597 -29.843070 -18.420002 3.655764 30.263291 14.387814 -8.327686 2.112480 -0.030237 -6.959481 2.689836 -2.388080 -0.271822 0.000000 0.000000 0.000000 4.815432 25.092908 0.318917 2.967598 -21.694455 -10.205405 25.213370 -5.845714 9.833046 -27.217407 -11.947837 -0.852897 -0.634616 0.388609 0.169738 0.000000 0.000000 0.000000 4.863986 26.167165 -0.479524 3.771451 4.524116 -1.039706 0.576338 3.087346 0.491373 0.405557 0.809009 0.016805 0.000000 0.000000 0.000000 1.659760 2.684500 0.837802 -3.922970 8.639144 -6.344072 -4.631122 6.224993 10.306405 0.000000 0.000000 0.000000 0.430536 2.934807 0.874349 -0.025215 -2.643122 -3.301325 2.825214 -0.933745 0.008089 -74.701676 0.233102 -26.695748 1.896058 -67.750975 3.503820 0.000000 0.000000 0.000000 1.208984 2.890654 0.876670 4.227114 12.011439 7.946914 -5.312039 -0.257975 0.268296 14.085996 -5.938409 67.319683 17.389334 42.078139 -7.339659 0.000000 0.000000 0.000000 
-6.352934 87.498405 -0.736832 0.000000 0.000000 0.000000 4.368746 23.527181 0.320267 -29.191607 -17.884596 5.307044 29.924285 15.392871 -8.259881 1.969023 0.460800 -7.435941 2.945730 -2.406012 -0.455417 0.000000 0.000000 0.000000 5.495635 22.100013 0.112835 1.688111 -20.099684 -9.971829 25.090872 -5.425932 9.641183 -26.299273 -11.729020 -0.719934 -0.783097 0.380867 0.111737 0.000000 0.000000 0.000000 5.450809 23.226016 -0.696129 3.743143 4.301631 -1.207828 0.735769 2.944876 0.480530 0.397829 1.010076 -0.027952 0.000000 0.000000 0.000000 1.763602 2.537868 0.811832 -5.001812 5.291656 -5.880684 -3.002054 3.124913 10.534279 0.000000 0.000000 0.000000 0.495948 2.802954 0.846649 -0.002686 -3.298490 -3.310736 2.742612 -0.903460 0.094655 -74.970574 0.587559 -28.096680 2.742137 -70.142382 3.958945 0.000000 0.000000 0.000000 1.354510 2.746635 0.836606 4.177304 11.746188 7.708624 -5.239074 -0.122111 0.219642 13.549561 -5.603100 67.328494 17.866523 43.459275 -7.751892 0.000000 0.000000 0.000000 
-6.276379 87.631317 -1.047558 0.000000 0.000000 0.000000 4.969951 20.322038 0.090659 -28.579168 -17.479702 7.029452 29.615693 16.572780 -8.138456 1.859431 1.070089 -8.052701 3.181729 -2.399511 -0.687844 0.000000 0.000000 0.000000 6.150411 18.870363 -0.069828 0.337850 -18.435036 -9.664491 24.924943 -4.903192 9.453236 -25.382679 -11.415988 -0.595306 -0.921778 0.364051 0.114044 0.000000 0.000000 0.000000 6.038731 19.988101 -0.873444 3.693719 4.067251 -1.358177 0.908333 2.783300 0.473036 0.391864 1.305516 -0.013391 0.000000 0.000000 0.000000 1.871848 2.380553 0.795835 -6.371410 1.862899 -5.455864 -1.330955 0.008527 10.612529 0.000000 0.000000 0.000000 0.572317 2.680043 0.825322 0.038445 -3.998810 -3.220587 2.659073 -1.041104 0.143707 -75.067297 0.733136 -29.761658 3.887739 -72.308194 4.707904 0.000000 0.000000 0.000000 1.529175 2.605760 0.791693 4.106572 11.436526 7.456110 -5.075914 0.051957 0.148025 13.085461 -5.116836 67.232673 18.378514 44.851417 -8.170003 0.000000 0.000000 0.000000 
-6.169841 87.771469 -1.376877 0.000000 0.000000 0.000000 5.546257 16.842485 -0.113453 -27.977218 -17.128783 8.844590 29.377661 17.810599 -7.969048 1.778345 1.734478 -8.823892 3.346848 -2.370746 -0.923757 0.000000 0.000000 0.000000 6.743027 15.358273 -0.219504 -1.046792 -16.703071 -9.286246 24.707403 -4.253355 9.273772 -24.464452 -10.984151 -0.490110 -1.014568 0.338542 0.173770 0.000000 0.000000 0.000000 6.573458 16.434320 -1.008311 3.639963 3.815725 -1.478582 1.083339 2.603427 0.478970 0.400884 1.580724 0.030040 0.000000 0.000000 0.000000 1.963634 2.211687 0.796557 -7.968730 -1.689621 -4.973432 0.395315 -3.223963 10.595031 0.000000 0.000000 0.000000 0.665421 2.549565 0.809604 0.099691 -4.720467 -3.037837 2.515386 -1.281966 0.155625 -75.025072 0.612305 -31.579410 5.173511 -73.780783 5.605724 0.000000 0.000000 0.000000 1.724271 2.464966 0.756466 4.018760 11.143145 7.222124 -4.829266 0.270972 0.005368 12.699973 -4.492965 66.963530 18.853556 46.070650 -8.513239 0.000000 0.000000 0.000000 
-6.034430 87.916000 -1.718925 0.000000 0.000000 0.000000 6.061460 13.026102 -0.280062 -27.318954 -16.698499 10.752258 29.215134 19.029156 -7.765035 1.633775 2.409256 -9.677640 3.503853 -2.329198 -1.140602 0.000000 0.000000 0.000000 7.253917 11.531127 -0.331919 -2.444579 -14.909323 -8.860684 24.459039 -3.446178 9.101911 -23.487253 -10.419648 -0.358380 -1.080455 0.306082 0.259791 0.000000 0.000000 0.000000 7.039598 12.519150 -1.100938 3.604209 3.536618 -1.559583 1.245427 2.402864 0.504089 0.447817 1.837927 0.045587 0.000000 0.000000 0.000000 2.024440 2.029078 0.823649 -9.692357 -5.393176 -4.365851 2.176757 -6.628017 10.525324 0.000000 0.000000 0.000000 0.761974 2.400733 0.799690 0.175823 -5.450690 -2.812331 2.315479 -1.548310 0.220446 -74.902108 0.268689 -33.365747 6.271161 -74.270555 6.342016 0.000000 0.000000 0.000000 1.921701 2.321764 0.743562 3.924619 10.908776 7.029778 -4.566446 0.529288 -0.180734 12.363681 -3.808007 66.441177 19.191686 46.937948 -8.690866 0.000000 0.000000 0.000000 
-5.853572 88.049744 -2.046524 0.000000 0.000000 0.000000 6.490265 8.840779 -0.391188 -26.568690 -15.996365 12.734445 29.100359 20.147294 -7.535226 1.324654 3.044405 -10.534507 3.663776 -2.282214 -1.317413 0.000000 0.000000 0.000000 7.668585 7.413651 -0.397142 -3.862286 -13.054553 -8.432986 24.202840 -2.441462 8.929188 -22.403082 -9.710847 -0.101626 -1.197002 0.270411 0.324218 0.000000 0.000000 0.000000 7.409849 8.237976 -1.145651 3.608087 3.222728 -1.587647 1.371941 2.185760 0.548763 0.507772 2.021652 0.020587 0.000000 0.000000 0.000000 2.041672 1.835342 0.873228 -11.395778 -9.238506 -3.608600 3.976780 -10.190833 10.442939 0.000000 0.000000 0.000000 0.854398 2.229445 0.795755 0.258801 -6.150342 -2.593603 2.016767 -1.742333 0.339818 -74.730794 -0.226449 -34.923106 6.877400 -73.873134 6.623531 0.000000 0.000000 0.000000 2.096835 2.176176 0.755691 3.829655 10.754568 6.881635 -4.329944 0.801052 -0.401745 12.000732 -3.165790 65.668096 19.311392 47.373796 -8.657436 0.000000 0.000000 0.000000 
-5.634707 88.162201 -2.338367 0.000000 0.000000 0.000000 6.829738 4.299178 -0.436194 -25.753157 -14.882195 14.769104 29.039874 21.107183 -7.311497 0.822896 3.581684 -11.367744 3.787033 -2.238654 -1.443041 0.000000 0.000000 0.000000 7.996788 2.986947 -0.403495 -5.296956 -11.145989 -8.027212 23.972482 -1.227556 8.736760 -21.231650 -8.854924 0.311416 -1.359983 0.235992 0.326175 0.000000 0.000000 0.000000 7.666692 3.586288 -1.133925 3.664644 2.870790 -1.557860 1.451339 1.958220 0.604146 0.553246 2.142116 -0.030898 0.000000 0.000000 0.000000 2.023366 1.633891 0.936860 -12.957382 -13.170814 -2.721311 5.723156 -13.875779 10.348396 0.000000 0.000000 0.000000 0.924916 2.039385 0.794733 0.337045 -6.774976 -2.423298 1.662252 -1.895392 0.531030 -74.561357 -0.764790 -36.130400 7.045041 -73.002189 6.508206 0.000000 0.000000 0.000000 2.232368 2.024228 0.785979 3.748934 10.657595 6.755093 -4.137712 1.072551 -0.630436 11.549795 -2.675001 64.701289 19.206811 47.418062 -8.430523 0.000000 0.000000 0.000000 
-5.373902 88.225090 -2.568279 0.000000 0.000000 0.000000 7.097746 -0.538106 -0.401550 -24.953953 -13.215500 16.813163 29.093966 21.871254 -7.158779 0.199317 3.957692 -12.138487 3.800985 -2.204514 -1.517258 0.000000 0.000000 0.000000 8.275193 -1.719481 -0.333028 -6.778716 -9.223861 -7.659049 23.825674 0.163996 8.507966 -20.070665 -7.862505 0.803455 -1.454636 0.212004 0.248676 0.000000 0.000000 0.000000 7.833430 -1.354989 -1.053053 3.770743 2.478998 -1.461107 1.475676 1.718631 0.658133 0.600700 2.299813 -0.063323 0.000000 0.000000 0.000000 1.973084 1.419534 1.000420 -14.273474 -17.096997 -1.773045 7.349294 -17.554908 10.237061 0.000000 0.000000 0.000000 0.962592 1.832956 0.794204 0.399531 -7.297320 -2.371784 1.216622 -2.041851 0.760534 -74.326262 -1.266299 -36.970144 7.013123 -72.179049 6.220302 0.000000 0.000000 0.000000 2.315727 1.858240 0.818525 3.696700 10.564931 6.604516 -3.973307 1.353445 -0.860124 10.936618 -2.378864 63.667554 18.923869 47.213877 -8.084427 0.000000 0.000000 0.000000 
-5.073578 88.230339 -2.734791 0.000000 0.000000 0.000000 7.320359 -5.605179 -0.260475 -24.294107 -10.964276 18.835047 29.358964 22.405300 -7.118500 -0.428599 4.136747 -12.828817 3.659988 -2.180956 -1.536136 0.000000 0.000000 0.000000 8.535148 -6.655260 -0.159601 -8.326270 -7.314898 -7.329370 23.798930 1.689620 8.226482 -19.022183 -6.747789 1.279618 -1.362056 0.206115 0.105351 0.000000 0.000000 0.000000 7.933915 -6.500827 -0.880380 3.906642 2.050587 -1.298475 1.455505 1.464507 0.698692 0.599795 2.435869 -0.028652 0.000000 0.000000 0.000000 1.908052 1.190111 1.047451 -15.275175 -20.887516 -0.834039 8.751080 -21.106702 10.082800 0.000000 0.000000 0.000000 0.975839 1.610868 0.783424 0.443160 -7.716397 -2.454930 0.735582 -2.211578 0.963327 -73.957077 -1.668451 -37.505337 6.941765 -71.747032 5.916070 0.000000 0.000000 0.000000 2.350383 1.670083 0.837290 3.680697 10.418718 6.390212 -3.773740 1.646501 -1.072369 10.097497 -2.234013 62.733450 18.546696 46.882063 -7.710623 0.000000 0.000000 0.000000 
-4.729151 88.177185 -2.855141 0.000000 0.000000 0.000000 7.542971 -10.799475 0.002434 -23.856698 -8.138807 20.779093 29.833604 22.723100 -7.203912 -1.051066 4.142729 -13.389764 3.494054 -2.174621 -1.520553 0.000000 0.000000 0.000000 8.810959 -11.732881 0.146191 -9.981182 -5.449015 -7.043697 23.953342 3.316882 7.888187 -18.111136 -5.532737 1.668281 -1.034557 0.221426 -0.069525 0.000000 0.000000 0.000000 8.037746 -11.733337 -0.600518 4.051528 1.596145 -1.078779 1.414229 1.190306 0.715985 0.646488 2.579159 0.030074 0.000000 0.000000 0.000000 1.843763 0.937802 1.071662 -15.959891 -24.402681 0.022344 9.858591 -24.387163 9.876001 0.000000 0.000000 0.000000 0.977710 1.366000 0.754789 0.471846 -8.078051 -2.656098 0.248917 -2.417507 1.093395 -73.456267 -1.959273 -37.848390 6.918116 -71.688907 5.676251 0.000000 0.000000 0.000000 2.352237 1.448562 0.833691 3.706587 10.173291 6.102373 -3.561349 1.947567 -1.236985 9.022116 -2.145795 62.023015 18.149146 46.476797 -7.362742 0.000000 0.000000 0.000000 
